<?xml version="1.0" encoding="UTF-8" standalone="no"?>
<!-- Created with Inkscape (http://www.inkscape.org/) -->

<svg
   xmlns:dc="http://purl.org/dc/elements/1.1/"
   xmlns:cc="http://creativecommons.org/ns#"
   xmlns:rdf="http://www.w3.org/1999/02/22-rdf-syntax-ns#"
   xmlns:svg="http://www.w3.org/2000/svg"
   xmlns="http://www.w3.org/2000/svg"
   xmlns:sodipodi="http://sodipodi.sourceforge.net/DTD/sodipodi-0.dtd"
   xmlns:inkscape="http://www.inkscape.org/namespaces/inkscape"
   width="323.94516mm"
   height="325.86316mm"
   viewBox="0 0 1147.8372 1154.6333"
   id="svg2"
   version="1.1"
   inkscape:version="0.91 r13725"
   sodipodi:docname="Resolving Incidents.svg"
   inkscape:export-filename="C:\Users\CaitSith2\rect4147.png"
   inkscape:export-xdpi="75"
   inkscape:export-ydpi="75">
  <defs
     id="defs4" />
  <sodipodi:namedview
     id="base"
     pagecolor="#ffffff"
     bordercolor="#666666"
     borderopacity="1.0"
     inkscape:pageopacity="0.0"
     inkscape:pageshadow="2"
     inkscape:zoom="0.7"
     inkscape:cx="562.75072"
     inkscape:cy="650.70613"
     inkscape:document-units="px"
     inkscape:current-layer="layer1"
     showgrid="false"
     fit-margin-top="0"
     fit-margin-left="0"
     fit-margin-right="0"
     fit-margin-bottom="0"
     inkscape:window-width="1920"
     inkscape:window-height="1017"
     inkscape:window-x="-8"
     inkscape:window-y="-8"
     inkscape:window-maximized="1" />
  <metadata
     id="metadata7">
    <rdf:RDF>
      <cc:Work
         rdf:about="">
        <dc:format>image/svg+xml</dc:format>
        <dc:type
           rdf:resource="http://purl.org/dc/dcmitype/StillImage" />
        <dc:title></dc:title>
      </cc:Work>
    </rdf:RDF>
  </metadata>
  <g
     inkscape:groupmode="layer"
     id="layer2"
     inkscape:label="Layer 2"
     style="display:inline"
     transform="translate(-14.61274,-15.437323)" />
  <g
     inkscape:label="Layer 1"
     inkscape:groupmode="layer"
     id="layer1"
     transform="translate(564.74444,63.843332)">
    <rect
       style="fill:#ffffff;fill-opacity:1;stroke:#000000;stroke-width:10.096;stroke-linecap:butt;stroke-linejoin:miter;stroke-miterlimit:10.69999981;stroke-dasharray:none;stroke-opacity:1"
       id="rect4147"
       width="1143.0413"
       height="1149.8374"
       x="-562.3465"
       y="-61.445389" />
    <rect
       style="fill:none;fill-opacity:1;stroke:#000000;stroke-width:8;stroke-linecap:butt;stroke-linejoin:miter;stroke-miterlimit:10.69999981;stroke-dasharray:none;stroke-opacity:1"
       id="rect4151"
       width="880.34686"
       height="172.18761"
       x="-520.49408"
       y="84.573792" />
    <rect
       style="fill:none;fill-opacity:1;stroke:#000000;stroke-width:8;stroke-linecap:butt;stroke-linejoin:miter;stroke-miterlimit:10.69999981;stroke-dasharray:none;stroke-opacity:1"
       id="rect4153"
       width="1040.2179"
       height="171.48674"
       x="-514.08276"
       y="324.33038" />
    <rect
       style="fill:none;fill-opacity:1;stroke:#000000;stroke-width:8;stroke-linecap:butt;stroke-linejoin:miter;stroke-miterlimit:10.69999981;stroke-dasharray:none;stroke-opacity:1"
       id="rect4155"
       width="863.19366"
       height="171.96155"
       x="-418.26767"
       y="563.49927" />
    <rect
       style="fill:none;fill-opacity:1;stroke:#000000;stroke-width:8;stroke-linecap:butt;stroke-linejoin:miter;stroke-miterlimit:10.69999981;stroke-dasharray:none;stroke-opacity:1"
       id="rect4157"
       width="62.254932"
       height="171.87939"
       x="466.09747"
       y="563.53992" />
    <rect
       style="fill:none;fill-opacity:1;stroke:#000000;stroke-width:8;stroke-linecap:butt;stroke-linejoin:miter;stroke-miterlimit:10.69999981;stroke-dasharray:none;stroke-opacity:1"
       id="rect4159"
       width="65.465179"
       height="171.92084"
       x="-512.27991"
       y="563.51923" />
    <circle
       style="fill:none;fill-opacity:1;stroke:#000000;stroke-width:8;stroke-linecap:butt;stroke-linejoin:miter;stroke-miterlimit:10.69999981;stroke-dasharray:none;stroke-opacity:1"
       id="path4161"
       cx="470.64362"
       cy="59.603634"
       r="65.067482" />
    <ellipse
       style="fill:#ffffff;fill-opacity:1;stroke:#000000;stroke-width:8;stroke-linecap:butt;stroke-linejoin:miter;stroke-miterlimit:10.69999981;stroke-dasharray:none;stroke-opacity:1"
       id="path4163"
       cx="356.11475"
       cy="84.737747"
       rx="21.875124"
       ry="24.404272" />
    <flowRoot
       xml:space="preserve"
       id="flowRoot4165"
       style="font-style:normal;font-variant:normal;font-weight:normal;font-stretch:normal;font-size:80px;line-height:150%;font-family:Arial;-inkscape-font-specification:Arial;text-align:start;letter-spacing:0px;word-spacing:0px;writing-mode:lr-tb;text-anchor:start;fill:#000000;fill-opacity:1;stroke:none;stroke-width:1px;stroke-linecap:butt;stroke-linejoin:miter;stroke-opacity:1"
       transform="translate(-579.35718,-79.280655)"><flowRegion
         id="flowRegion4167"><rect
           id="rect4169"
           width="483.86307"
           height="108.08632"
           x="223.24371"
           y="262.5752"
           style="font-style:normal;font-variant:normal;font-weight:normal;font-stretch:normal;font-size:80px;font-family:Arial;-inkscape-font-specification:Arial" /></flowRegion><flowPara
         id="flowPara4171"></flowPara></flowRoot>    <flowRoot
       xml:space="preserve"
       id="flowRoot4173"
       style="font-style:normal;font-variant:normal;font-weight:normal;font-stretch:normal;font-size:70px;line-height:150%;font-family:'Special Elite';-inkscape-font-specification:'Special Elite, Normal';text-align:start;letter-spacing:0px;word-spacing:0px;writing-mode:lr-tb;text-anchor:start;fill:#000000;fill-opacity:1;stroke:none;stroke-width:1px;stroke-linecap:butt;stroke-linejoin:miter;stroke-opacity:1"
       transform="translate(-579.35718,-79.280655)"><flowRegion
         id="flowRegion4175"><rect
           id="rect4177"
           width="488.91382"
           height="96.974648"
           x="216.17264"
           y="274.69702"
           style="font-size:70px" /></flowRegion><flowPara
         id="flowPara4179"></flowPara></flowRoot>    <g
       transform="scale(0.94676529,1.056228)"
       style="font-style:normal;font-variant:normal;font-weight:normal;font-stretch:normal;font-size:122.73262787px;line-height:150%;font-family:'Special Elite';-inkscape-font-specification:'Special Elite, Normal';text-align:start;letter-spacing:0px;word-spacing:0px;writing-mode:lr-tb;text-anchor:start;fill:#000000;fill-opacity:1;stroke:none;stroke-width:1px;stroke-linecap:butt;stroke-linejoin:miter;stroke-opacity:1"
       id="text4181">
      <path
         d="m -269.61019,117.14044 1.85777,27.62683 -1.85777,0 q -3.71554,-12.40511 -10.60726,-17.85856 -6.89173,-5.45345 -16.54014,-5.45345 -8.09029,0 -14.62244,4.13504 -6.53216,4.0751 -10.30763,13.06431 -3.71554,8.98921 -3.71554,22.35316 0,11.02676 3.53576,19.11704 3.53575,8.09029 10.60726,12.40511 7.13144,4.31482 16.2405,4.31482 7.9105,0 13.96323,-3.35597 6.05274,-3.4159 13.30403,-13.48381 l 1.85777,1.19856 q -6.11266,10.84697 -14.26288,15.88093 -8.15021,5.03395 -19.35675,5.03395 -20.19575,0 -31.28244,-14.98201 -8.27007,-11.14661 -8.27007,-26.24848 0,-12.16539 5.45345,-22.35316 5.45345,-10.18776 14.98201,-15.76107 9.58849,-5.63324 20.91489,-5.63324 8.80942,0 17.37913,4.31482 2.51698,1.31842 3.59568,1.31842 1.61806,0 2.81662,-1.13863 1.55813,-1.61806 2.21734,-4.49461 l 2.09748,0 z"
         style="font-style:normal;font-variant:normal;font-weight:normal;font-stretch:normal;font-size:122.73262787px;font-family:'Times New Roman';-inkscape-font-specification:'Times New Roman, '"
         id="path4261" />
      <path
         d="m -241.56387,115.04296 0,40.15179 q 6.65202,-7.31122 10.54734,-9.34878 3.89532,-2.09748 7.79064,-2.09748 4.67439,0 8.03036,2.57691 3.35597,2.5769 4.97403,8.09028 1.13863,3.8354 1.13863,14.02317 l 0,19.41668 q 0,5.21374 0.83899,7.13144 0.59928,1.43827 2.03756,2.27726 1.43827,0.839 5.27366,0.839 l 0,2.15741 -26.96761,0 0,-2.15741 1.25848,0 q 3.8354,0 5.3336,-1.13864 1.4982,-1.19856 2.09748,-3.47582 0.17979,-0.95885 0.17979,-5.63324 l 0,-19.41668 q 0,-8.98921 -0.95885,-11.80583 -0.89892,-2.81662 -2.93648,-4.19496 -2.03755,-1.43827 -4.9141,-1.43827 -2.93647,0 -6.11266,1.55812 -3.17618,1.55813 -7.61086,6.29245 l 0,29.00517 q 0,5.63324 0.59928,7.01158 0.65921,1.37835 2.3372,2.3372 1.73791,0.89892 5.93287,0.89892 l 0,2.15741 -27.20733,0 0,-2.15741 q 3.65561,0 5.75309,-1.13864 1.19856,-0.59928 1.9177,-2.27726 0.71914,-1.67799 0.71914,-6.8318 l 0,-49.68035 q 0,-9.4087 -0.47943,-11.56611 -0.41949,-2.15741 -1.37834,-2.93647 -0.89892,-0.77907 -2.45705,-0.77907 -1.25849,0 -4.07511,0.95885 l -0.83899,-2.09748 16.42028,-6.71194 2.75669,0 z"
         style="font-style:normal;font-variant:normal;font-weight:normal;font-stretch:normal;font-size:122.73262787px;font-family:'Times New Roman';-inkscape-font-specification:'Times New Roman, '"
         id="path4263" />
      <path
         d="m -165.21555,192.35013 q -8.44985,6.53216 -10.60726,7.55094 -3.23611,1.4982 -6.89173,1.4982 -5.69316,0 -9.4087,-3.89532 -3.65561,-3.89533 -3.65561,-10.2477 0,-4.01518 1.79784,-6.95165 2.45705,-4.07511 8.50979,-7.67079 6.11266,-3.59568 20.25567,-8.7495 l 0,-2.1574 q 0,-8.21015 -2.63683,-11.26648 -2.57691,-3.05633 -7.55093,-3.05633 -3.77547,0 -5.99281,2.03756 -2.27726,2.03755 -2.27726,4.67438 l 0.11985,3.47583 q 0,2.75669 -1.43827,4.25489 -1.37835,1.4982 -3.65561,1.4982 -2.21734,0 -3.65561,-1.55813 -1.37835,-1.55813 -1.37835,-4.25489 0,-5.15381 5.27367,-9.46863 5.27367,-4.31482 14.80223,-4.31482 7.31122,0 11.98561,2.45705 3.53575,1.85777 5.21373,5.81302 1.07871,2.57691 1.07871,10.54734 l 0,18.63762 q 0,7.85057 0.29964,9.64841 0.29964,1.73792 0.95885,2.3372 0.71914,0.59928 1.61806,0.59928 0.95884,0 1.67798,-0.4195 1.25849,-0.77906 4.85417,-4.37475 l 0,3.35597 q -6.71194,8.98921 -12.8246,8.98921 -2.93647,0 -4.67439,-2.03755 -1.73791,-2.03756 -1.79784,-6.95166 z m 0,-3.89532 0,-20.91488 q -9.04913,3.59568 -11.68597,5.09388 -4.73431,2.63683 -6.77186,5.51338 -2.03756,2.87654 -2.03756,6.29244 0,4.31482 2.57691,7.19137 2.5769,2.81662 5.93287,2.81662 4.55454,0 11.98561,-5.99281 z"
         style="font-style:normal;font-variant:normal;font-weight:normal;font-stretch:normal;font-size:122.73262787px;font-family:'Times New Roman';-inkscape-font-specification:'Times New Roman, '"
         id="path4265" />
      <path
         d="m -125.84281,143.74849 0,12.34518 q 6.89172,-12.34518 14.14302,-12.34518 3.29604,0 5.45345,2.03756 2.15741,1.97762 2.15741,4.61446 0,2.33719 -1.55813,3.95525 -1.55813,1.61805 -3.71554,1.61805 -2.09748,0 -4.73432,-2.03755 -2.5769,-2.09748 -3.83539,-2.09748 -1.07871,0 -2.33719,1.19856 -2.69677,2.45705 -5.57331,8.09028 l 0,26.30841 q 0,4.55454 1.13863,6.89173 0.77906,1.61806 2.75669,2.69676 1.97763,1.07871 5.69316,1.07871 l 0,2.15741 -28.10625,0 0,-2.15741 q 4.19497,0 6.23252,-1.31842 1.4982,-0.95885 2.09748,-3.05633 0.29964,-1.01878 0.29964,-5.81302 l 0,-21.27446 q 0,-9.58848 -0.4195,-11.38632 -0.35956,-1.85777 -1.43827,-2.69677 -1.01878,-0.83899 -2.5769,-0.83899 -1.85777,0 -4.19497,0.89892 l -0.59928,-2.15741 16.60007,-6.71194 2.51698,0 z"
         style="font-style:normal;font-variant:normal;font-weight:normal;font-stretch:normal;font-size:122.73262787px;font-family:'Times New Roman';-inkscape-font-specification:'Times New Roman, '"
         id="path4267" />
      <path
         d="m -69.810106,192.35013 q -8.449854,6.53216 -10.607263,7.55094 -3.236114,1.4982 -6.891725,1.4982 -5.693164,0 -9.408702,-3.89532 -3.655614,-3.89533 -3.655614,-10.2477 0,-4.01518 1.797845,-6.95165 2.457049,-4.07511 8.509781,-7.67079 6.112661,-3.59568 20.255678,-8.7495 l 0,-2.1574 q 0,-8.21015 -2.636834,-11.26648 -2.576905,-3.05633 -7.550933,-3.05633 -3.775466,0 -5.992804,2.03756 -2.277265,2.03755 -2.277265,4.67438 l 0.119856,3.47583 q 0,2.75669 -1.438273,4.25489 -1.378345,1.4982 -3.655611,1.4982 -2.217337,0 -3.65561,-1.55813 -1.378345,-1.55813 -1.378345,-4.25489 0,-5.15381 5.273667,-9.46863 5.273668,-4.31482 14.802226,-4.31482 7.311221,0 11.985609,2.45705 3.535754,1.85777 5.213739,5.81302 1.078705,2.57691 1.078705,10.54734 l 0,18.63762 q 0,7.85057 0.29964,9.64841 0.29964,1.73792 0.958849,2.3372 0.719136,0.59928 1.618057,0.59928 0.958849,0 1.677985,-0.4195 1.258489,-0.77906 4.854171,-4.37475 l 0,3.35597 q -6.71194,8.98921 -12.8246,8.98921 -2.936474,0 -4.674388,-2.03755 -1.737913,-2.03756 -1.797841,-6.95166 z m 0,-3.89532 0,-20.91488 q -9.049134,3.59568 -11.685968,5.09388 -4.734315,2.63683 -6.771868,5.51338 -2.037554,2.87654 -2.037554,6.29244 0,4.31482 2.576906,7.19137 2.576906,2.81662 5.932876,2.81662 4.554531,0 11.985608,-5.99281 z"
         style="font-style:normal;font-variant:normal;font-weight:normal;font-stretch:normal;font-size:122.73262787px;font-family:'Times New Roman';-inkscape-font-specification:'Times New Roman, '"
         id="path4269" />
      <path
         d="m 0.12591439,179.40568 q -2.21733749,10.84697 -8.68956599,16.71992 -6.4722284,5.81302 -14.3228014,5.81302 -9.348775,0 -16.300427,-7.85057 -6.951653,-7.85058 -6.951653,-21.21453 0,-12.94446 7.670789,-21.03474 7.730717,-8.09029 18.517765,-8.09029 8.090285,0 13.3040248,4.31482 5.2137395,4.25489 5.2137395,8.86935 0,2.27727 -1.498201,3.71554 -1.438273,1.37835 -4.0751068,1.37835 -3.5357545,0 -5.3335955,-2.27727 -1.018777,-1.25849 -1.378345,-4.79424 -0.29964,-3.53576 -2.397122,-5.39353 -2.097481,-1.79784 -5.81302,-1.79784 -5.992804,0 -9.648414,4.43468 -4.854172,5.87294 -4.854172,15.52136 0,9.8282 4.794244,17.37913 4.854171,7.49101 13.064313,7.49101 5.872948,0 10.5473348,-4.01518 3.2960423,-2.75669 6.4123004,-10.00799 l 1.73791319,0.839 z"
         style="font-style:normal;font-variant:normal;font-weight:normal;font-stretch:normal;font-size:122.73262787px;font-family:'Times New Roman';-inkscape-font-specification:'Times New Roman, '"
         id="path4271" />
      <path
         d="m 23.85743,127.32821 0,18.03834 12.824601,0 0,4.19496 -12.824601,0 0,35.59726 q 0,5.33359 1.498201,7.19136 1.558129,1.85777 3.955251,1.85777 1.977625,0 3.835395,-1.19856 1.857769,-1.25849 2.876546,-3.65561 l 2.337193,0 q -2.097481,5.87295 -5.932876,8.86935 -3.835394,2.93648 -7.910501,2.93648 -2.75669,0 -5.393524,-1.49821 -2.636834,-1.55812 -3.895323,-4.37474 -1.258488,-2.87655 -1.258488,-8.80942 l 0,-36.91568 -8.6895664,0 0,-1.97762 q 3.2960422,-1.31842 6.7119404,-4.43468 3.475827,-3.17618 6.172588,-7.491 1.378345,-2.27727 3.835395,-8.33 l 1.857769,0 z"
         style="font-style:normal;font-variant:normal;font-weight:normal;font-stretch:normal;font-size:122.73262787px;font-family:'Times New Roman';-inkscape-font-specification:'Times New Roman, '"
         id="path4273" />
      <path
         d="m 51.184613,166.04172 q -0.05993,12.22532 5.932876,19.17698 5.992804,6.95165 14.08309,6.95165 5.393524,0 9.348774,-2.93647 4.015179,-2.99641 6.711941,-10.18777 l 1.857769,1.19856 q -1.258489,8.21014 -7.311221,14.98201 -6.052732,6.71194 -15.161794,6.71194 -9.888127,0 -16.959636,-7.67079 -7.011581,-7.73072 -7.011581,-20.7351 0,-14.08309 7.191365,-21.93366 7.251293,-7.91051 18.158197,-7.91051 9.228918,0 15.161794,6.11266 5.932876,6.05274 5.932876,16.2405 l -37.93445,0 z m 0,-3.47582 25.40949,0 q -0.299641,-5.27367 -1.258489,-7.43108 -1.498201,-3.35597 -4.494603,-5.27367 -2.936474,-1.91769 -6.172589,-1.91769 -4.974027,0 -8.929278,3.89532 -3.895322,3.83539 -4.554531,10.72712 z"
         style="font-style:normal;font-variant:normal;font-weight:normal;font-stretch:normal;font-size:122.73262787px;font-family:'Times New Roman';-inkscape-font-specification:'Times New Roman, '"
         id="path4275" />
      <path
         d="m 112.43108,143.74849 0,12.34518 q 6.89173,-12.34518 14.14302,-12.34518 3.29604,0 5.45345,2.03756 2.15741,1.97762 2.15741,4.61446 0,2.33719 -1.55813,3.95525 -1.55813,1.61805 -3.71554,1.61805 -2.09748,0 -4.73431,-2.03755 -2.57691,-2.09748 -3.8354,-2.09748 -1.0787,0 -2.33719,1.19856 -2.69676,2.45705 -5.57331,8.09028 l 0,26.30841 q 0,4.55454 1.13864,6.89173 0.77906,1.61806 2.75669,2.69676 1.97762,1.07871 5.69316,1.07871 l 0,2.15741 -28.106252,0 0,-2.15741 q 4.194963,0 6.232512,-1.31842 1.49821,-0.95885 2.09749,-3.05633 0.29964,-1.01878 0.29964,-5.81302 l 0,-21.27446 q 0,-9.58848 -0.4195,-11.38632 -0.35957,-1.85777 -1.43827,-2.69677 -1.01878,-0.83899 -2.576909,-0.83899 -1.857769,0 -4.194963,0.89892 l -0.59928,-2.15741 16.600072,-6.71194 2.51697,0 z"
         style="font-style:normal;font-variant:normal;font-weight:normal;font-stretch:normal;font-size:122.73262787px;font-family:'Times New Roman';-inkscape-font-specification:'Times New Roman, '"
         id="path4277" />
    </g>
    <g
       transform="scale(0.99722206,1.0027857)"
       style="font-style:normal;font-variant:normal;font-weight:normal;font-stretch:normal;font-size:143.30880737px;line-height:150%;font-family:'Special Elite';-inkscape-font-specification:'Special Elite, Normal';text-align:start;letter-spacing:0px;word-spacing:0px;writing-mode:lr-tb;text-anchor:start;fill:#000000;fill-opacity:1;stroke:none;stroke-width:1px;stroke-linecap:butt;stroke-linejoin:miter;stroke-opacity:1"
       id="text4181-1">
      <path
         d="m -207.57734,453.75025 0,2.58907 -40.65548,0 0,-2.58907 3.3588,0 q 5.8779,0 8.53695,-3.42878 1.6794,-2.2392 1.6794,-10.77615 l 0,-61.2981 q 0,-7.20742 -0.90967,-9.5166 -0.69975,-1.74937 -2.86898,-3.00892 -3.0789,-1.6794 -6.4377,-1.6794 l -3.3588,0 0,-2.58908 40.65548,0 0,2.58908 -3.42878,0 q -5.80792,0 -8.46697,3.42877 -1.74938,2.2392 -1.74938,10.77615 l 0,61.2981 q 0,7.20743 0.90968,9.5166 0.69975,1.74938 2.93895,3.00893 3.00892,1.6794 6.36772,1.6794 l 3.42878,0 z"
         style="font-style:normal;font-variant:normal;font-weight:normal;font-stretch:normal;font-size:143.30880737px;font-family:'Times New Roman';-inkscape-font-specification:'Times New Roman, '"
         id="path4280" />
      <path
         d="m -180.77691,403.92805 q 11.26597,-13.57515 21.48232,-13.57515 5.24813,0 9.02678,2.65905 3.77865,2.58907 6.01785,8.60692 1.53945,4.1985 1.53945,12.8754 l 0,27.36023 q 0,6.08782 0.97965,8.25705 0.76972,1.74937 2.44912,2.72902 1.74938,0.97965 6.36773,0.97965 l 0,2.5191 -31.69868,0 0,-2.5191 1.32953,0 q 4.4784,0 6.22777,-1.32952 1.81935,-1.3995 2.5191,-4.05855 0.2799,-1.04963 0.2799,-6.57765 l 0,-26.24063 q 0,-8.74687 -2.30917,-12.66547 -2.2392,-3.98858 -7.62728,-3.98858 -8.32702,0 -16.58407,9.09675 l 0,33.79793 q 0,6.50767 0.76972,8.04712 0.97965,2.02928 2.65905,3.00893 1.74938,0.90967 6.9975,0.90967 l 0,2.5191 -31.69868,0 0,-2.5191 1.3995,0 q 4.89825,0 6.57765,-2.44912 1.74938,-2.5191 1.74938,-9.5166 l 0,-23.7915 q 0,-11.54588 -0.5598,-14.06498 -0.48983,-2.5191 -1.60943,-3.42877 -1.04962,-0.90968 -2.86897,-0.90968 -1.9593,0 -4.68833,1.04963 l -1.04962,-2.5191 19.3131,-7.8372 3.00893,0 0,13.57515 z"
         style="font-style:normal;font-variant:normal;font-weight:normal;font-stretch:normal;font-size:143.30880737px;font-family:'Times New Roman';-inkscape-font-specification:'Times New Roman, '"
         id="path4282" />
      <path
         d="m -73.365288,431.98802 q -2.589075,12.66548 -10.146375,19.52303 -7.557301,6.78758 -16.724027,6.78758 -10.9161,0 -19.0332,-9.16673 -8.1171,-9.16673 -8.1171,-24.77115 0,-15.1146 8.9568,-24.56123 9.02678,-9.44662 21.622276,-9.44662 9.446626,0 15.534451,5.0382 6.087825,4.96822 6.087825,10.3563 0,2.65905 -1.749375,4.33845 -1.6794,1.60942 -4.7583,1.60942 -4.128525,0 -6.227775,-2.65905 -1.189576,-1.46947 -1.609426,-5.598 -0.349875,-4.12852 -2.799,-6.29775 -2.449125,-2.09925 -6.787575,-2.09925 -6.997501,0 -11.265971,5.17815 -5.66798,6.85755 -5.66798,18.12353 0,11.4759 5.598,20.29275 5.66798,8.74687 15.254551,8.74687 6.857551,0 12.315601,-4.68832 3.848625,-3.21885 7.487325,-11.68583 l 2.029275,0.97965 z"
         style="font-style:normal;font-variant:normal;font-weight:normal;font-stretch:normal;font-size:143.30880737px;font-family:'Times New Roman';-inkscape-font-specification:'Times New Roman, '"
         id="path4284" />
      <path
         d="m -47.964357,356.83487 q 2.93895,0 4.968225,2.09925 2.09925,2.02928 2.09925,4.96823 0,2.93895 -2.09925,5.0382 -2.029275,2.09925 -4.968225,2.09925 -2.93895,0 -5.0382,-2.09925 -2.09925,-2.09925 -2.09925,-5.0382 0,-2.93895 2.029275,-4.96823 2.09925,-2.09925 5.108175,-2.09925 z m 5.807925,33.51803 0,51.5016 q 0,6.01785 0.8397,8.04712 0.909675,1.9593 2.589076,2.93895 1.749375,0.97965 6.29775,0.97965 l 0,2.5191 -31.138877,0 0,-2.5191 q 4.688326,0 6.297751,-0.90967 1.609425,-0.90968 2.5191,-3.00893 0.97965,-2.09925 0.97965,-8.04712 l 0,-24.70118 q 0,-10.42627 -0.629775,-13.50517 -0.489825,-2.2392 -1.53945,-3.0789 -1.049625,-0.90968 -2.868975,-0.90968 -1.959301,0 -4.758301,1.04963 l -0.97965,-2.5191 19.313101,-7.8372 3.0789,0 z"
         style="font-style:normal;font-variant:normal;font-weight:normal;font-stretch:normal;font-size:143.30880737px;font-family:'Times New Roman';-inkscape-font-specification:'Times New Roman, '"
         id="path4286" />
      <path
         d="m 20.751098,449.1319 q -4.688325,4.89825 -9.166725,7.06747 -4.4784003,2.09926 -9.6565506,2.09926 -10.4962505,0 -18.3334514,-8.74688 -7.8372,-8.81685 -7.8372,-22.60193 0,-13.78507 8.676901,-25.191 8.6769,-11.4759 22.3220257,-11.4759 8.4669753,0 13.9950003,5.38808 l 0,-11.82578 q 0,-10.98607 -0.5598,-13.50517 -0.489825,-2.5191 -1.609425,-3.42878 -1.1196,-0.90967 -2.799,-0.90967 -1.81935,0 -4.828275,1.1196 l -0.909675,-2.44913 19.103176,-7.8372 3.148875,0 0,74.10353 q 0,11.26597 0.489825,13.78507 0.5598,2.44913 1.6794,3.42878 1.189575,0.97965 2.729025,0.97965 1.889325,0 5.038201,-1.18958 l 0.769725,2.44913 -19.033201,7.90718 -3.218851,0 0,-9.16673 z m 0,-4.89825 0,-33.0282 q -0.41985,-4.7583 -2.5191,-8.6769 -2.09925,-3.9186 -5.598,-5.8779 -3.4287752,-2.02928 -6.7176004,-2.02928 -6.15780027,0 -10.9860755,5.52803 -6.3677251,7.2774 -6.3677251,21.2724 0,14.13495 6.1578001,21.69225 6.15780029,7.48732 13.7151007,7.48732 6.3677252,0 12.3156002,-6.36772 z"
         style="font-style:normal;font-variant:normal;font-weight:normal;font-stretch:normal;font-size:143.30880737px;font-family:'Times New Roman';-inkscape-font-specification:'Times New Roman, '"
         id="path4288" />
      <path
         d="m 57.907841,416.3836 q -0.06997,14.2749 6.927525,22.392 6.9975,8.1171 16.444126,8.1171 6.29775,0 10.9161,-3.42878 4.688326,-3.49875 7.837198,-11.89575 l 2.16923,1.3995 q -1.46948,9.58658 -8.536953,17.49375 -7.067475,7.83721 -17.703675,7.83721 -11.545876,0 -19.802927,-8.95681 -8.187075,-9.02677 -8.187075,-24.21135 0,-16.44412 8.397001,-25.61085 8.466975,-9.2367 21.202426,-9.2367 10.77615,0 17.703676,7.13745 6.927527,7.06748 6.927527,18.96323 l -44.294179,0 z m 0,-4.05855 29.669401,0 q -0.349875,-6.1578 -1.469475,-8.6769 -1.749375,-3.9186 -5.248125,-6.1578 -3.428775,-2.2392 -7.207426,-2.2392 -5.807925,0 -10.426275,4.54837 -4.548375,4.4784 -5.3181,12.52553 z"
         style="font-style:normal;font-variant:normal;font-weight:normal;font-stretch:normal;font-size:143.30880737px;font-family:'Times New Roman';-inkscape-font-specification:'Times New Roman, '"
         id="path4290" />
      <path
         d="m 129.35231,403.92805 q 11.26597,-13.57515 21.48232,-13.57515 5.24813,0 9.02678,2.65905 3.77865,2.58907 6.01785,8.60692 1.53945,4.1985 1.53945,12.8754 l 0,27.36023 q 0,6.08782 0.97965,8.25705 0.76973,1.74937 2.44913,2.72902 1.74937,0.97965 6.36772,0.97965 l 0,2.5191 -31.69868,0 0,-2.5191 1.32953,0 q 4.4784,0 6.22777,-1.32952 1.81935,-1.3995 2.5191,-4.05855 0.2799,-1.04963 0.2799,-6.57765 l 0,-26.24063 q 0,-8.74687 -2.30917,-12.66547 -2.2392,-3.98858 -7.62728,-3.98858 -8.32702,0 -16.58407,9.09675 l 0,33.79793 q 0,6.50767 0.76972,8.04712 0.97965,2.02928 2.65905,3.00893 1.74938,0.90967 6.9975,0.90967 l 0,2.5191 -31.69867,0 0,-2.5191 1.3995,0 q 4.89825,0 6.57765,-2.44912 1.74937,-2.5191 1.74937,-9.5166 l 0,-23.7915 q 0,-11.54588 -0.5598,-14.06498 -0.48982,-2.5191 -1.60942,-3.42877 -1.04963,-0.90968 -2.86898,-0.90968 -1.9593,0 -4.68832,1.04963 l -1.04963,-2.5191 19.3131,-7.8372 3.00893,0 0,13.57515 z"
         style="font-style:normal;font-variant:normal;font-weight:normal;font-stretch:normal;font-size:143.30880737px;font-family:'Times New Roman';-inkscape-font-specification:'Times New Roman, '"
         id="path4292" />
      <path
         d="m 200.93672,371.17975 0,21.06247 14.97465,0 0,4.89825 -14.97465,0 0,41.56515 q 0,6.22778 1.74938,8.397 1.81935,2.16923 4.61835,2.16923 2.30917,0 4.4784,-1.3995 2.16922,-1.46948 3.3588,-4.26848 l 2.72902,0 q -2.44912,6.85755 -6.92752,10.3563 -4.4784,3.42878 -9.2367,3.42878 -3.21885,0 -6.29775,-1.74938 -3.0789,-1.81935 -4.54838,-5.10817 -1.46947,-3.3588 -1.46947,-10.28633 l 0,-43.1046 -10.14638,0 0,-2.30917 q 3.84863,-1.53945 7.8372,-5.17815 4.05855,-3.70868 7.20743,-8.74688 1.60942,-2.65905 4.4784,-9.72652 l 2.16922,0 z"
         style="font-style:normal;font-variant:normal;font-weight:normal;font-stretch:normal;font-size:143.30880737px;font-family:'Times New Roman';-inkscape-font-specification:'Times New Roman, '"
         id="path4294" />
    </g>
    <g
       transform="scale(0.90064417,1.1103164)"
       style="font-style:normal;font-variant:normal;font-weight:normal;font-stretch:normal;font-size:127.74353027px;line-height:150%;font-family:'Special Elite';-inkscape-font-specification:'Special Elite, Normal';text-align:start;letter-spacing:0px;word-spacing:0px;writing-mode:lr-tb;text-anchor:start;fill:#000000;fill-opacity:1;stroke:none;stroke-width:1px;stroke-linecap:butt;stroke-linejoin:miter;stroke-opacity:1"
       id="text4181-7">
      <path
         d="m -196.09553,616.65332 0,2.30786 -36.23974,0 0,-2.30786 2.99398,0 q 5.23949,0 7.60973,-3.05637 1.49699,-1.99599 1.49699,-9.60571 l 0,-54.6403 q 0,-6.4246 -0.81087,-8.48297 -0.62375,-1.55937 -2.55737,-2.68212 -2.74449,-1.49699 -5.73848,-1.49699 l -2.99398,0 0,-2.30787 36.23974,0 0,2.30787 -3.05637,0 q -5.1771,0 -7.54734,3.05636 -1.55937,1.996 -1.55937,9.60572 l 0,54.6403 q 0,6.4246 0.81087,8.48297 0.62375,1.55936 2.61974,2.68211 2.68211,1.497 5.6761,1.497 l 3.05637,0 z"
         style="font-style:normal;font-variant:normal;font-weight:normal;font-stretch:normal;font-size:127.74353027px;font-family:'Times New Roman';-inkscape-font-specification:'Times New Roman, '"
         id="path4319" />
      <path
         d="m -172.20599,572.24248 q 10.04233,-12.10071 19.14905,-12.10071 4.67811,0 8.04635,2.37024 3.36823,2.30787 5.36423,7.6721 1.37224,3.74249 1.37224,11.47696 l 0,24.38853 q 0,5.42661 0.87325,7.36023 0.68612,1.55937 2.18311,2.43261 1.55937,0.87325 5.67611,0.87325 l 0,2.24549 -28.25577,0 0,-2.24549 1.18512,0 q 3.99198,0 5.55135,-1.18512 1.62175,-1.2475 2.24549,-3.61774 0.2495,-0.93562 0.2495,-5.86323 l 0,-23.39053 q 0,-7.79685 -2.05836,-11.28984 -1.996,-3.55536 -6.79885,-3.55536 -7.4226,0 -14.78282,8.10872 l 0,30.12701 q 0,5.80086 0.68612,7.1731 0.87325,1.80887 2.37024,2.68212 1.55937,0.81087 6.23748,0.81087 l 0,2.24549 -28.25577,0 0,-2.24549 1.24749,0 q 4.36624,0 5.86323,-2.18312 1.55937,-2.24549 1.55937,-8.48297 l 0,-21.20742 q 0,-10.29184 -0.499,-12.53733 -0.43662,-2.24549 -1.43462,-3.05636 -0.93562,-0.81087 -2.55736,-0.81087 -1.7465,0 -4.17911,0.93562 l -0.93563,-2.24549 17.21544,-6.98598 2.68212,0 0,12.10071 z"
         style="font-style:normal;font-variant:normal;font-weight:normal;font-stretch:normal;font-size:127.74353027px;font-family:'Times New Roman';-inkscape-font-specification:'Times New Roman, '"
         id="path4321" />
      <path
         d="m -127.91991,561.82589 26.88353,0 0,2.30787 -1.74649,0 q -2.43262,0 -3.74249,1.18512 -1.2475,1.18512 -1.2475,3.18111 0,2.18312 1.30987,5.17711 l 13.28583,31.56163 13.348201,-32.74675 q 1.43462,-3.49299 1.43462,-5.30186 0,-0.87324 -0.498998,-1.43462 -0.686123,-0.93562 -1.746494,-1.24749 -1.060371,-0.37425 -4.303859,-0.37425 l 0,-2.30787 18.650056,0 0,2.30787 q -3.243488,0.2495 -4.490983,1.30987 -2.183117,1.87124 -3.929611,6.23748 l -20.2718,49.02657 -2.557366,0 -20.396546,-48.2157 q -1.37225,-3.36824 -2.61974,-4.80286 -1.2475,-1.49699 -3.18112,-2.49499 -1.06037,-0.56137 -4.17911,-1.06037 l 0,-2.30787 z"
         style="font-style:normal;font-variant:normal;font-weight:normal;font-stretch:normal;font-size:127.74353027px;font-family:'Times New Roman';-inkscape-font-specification:'Times New Roman, '"
         id="path4323" />
      <path
         d="m -51.510821,583.34519 q -0.06237,12.72445 6.175103,19.95992 6.237477,7.23548 14.658071,7.23548 5.613729,0 9.730464,-3.05637 4.17911,-3.11873 6.985974,-10.60371 l 1.933618,1.2475 q -1.30987,8.54534 -7.609722,15.59369 -6.299852,6.98598 -15.780817,6.98598 -10.291837,0 -17.65206,-7.98398 -7.297848,-8.04634 -7.297848,-21.58167 0,-14.65807 7.484973,-22.82916 7.547347,-8.23347 18.899555,-8.23347 9.605715,0 15.780817,6.36222 6.175102,6.29986 6.175102,16.90357 l -39.48323,0 z m 0,-3.61774 26.446903,0 q -0.311874,-5.48898 -1.30987,-7.73447 -1.559369,-3.49299 -4.678108,-5.48898 -3.056363,-1.99599 -6.424601,-1.99599 -5.177106,0 -9.293841,4.05436 -4.05436,3.99198 -4.740483,11.16508 z"
         style="font-style:normal;font-variant:normal;font-weight:normal;font-stretch:normal;font-size:127.74353027px;font-family:'Times New Roman';-inkscape-font-specification:'Times New Roman, '"
         id="path4325" />
      <path
         d="m 12.17382,572.24248 q 10.042338,-12.10071 19.149055,-12.10071 4.678107,0 8.046345,2.37024 3.368238,2.30787 5.36423,7.6721 1.372245,3.74249 1.372245,11.47696 l 0,24.38853 q 0,5.42661 0.873247,7.36023 0.686123,1.55937 2.183117,2.43261 1.559369,0.87325 5.676104,0.87325 l 0,2.24549 -28.255771,0 0,-2.24549 1.185121,0 q 3.991985,0 5.551354,-1.18512 1.621744,-1.2475 2.245492,-3.61774 0.249499,-0.93562 0.249499,-5.86323 l 0,-23.39053 q 0,-7.79685 -2.058367,-11.28984 -1.995993,-3.55536 -6.79885,-3.55536 -7.422598,0 -14.782821,8.10872 l 0,30.12701 q 0,5.80086 0.686123,7.1731 0.873246,1.80887 2.370241,2.68212 1.559369,0.81087 6.237477,0.81087 l 0,2.24549 -28.2557712,0 0,-2.24549 1.2474954,0 q 4.366234,0 5.86322846,-2.18312 1.55936924,-2.24549 1.55936924,-8.48297 l 0,-21.20742 q 0,-10.29184 -0.4989981,-12.53733 -0.43662344,-2.24549 -1.43461977,-3.05636 -0.93562156,-0.81087 -2.55736563,-0.81087 -1.7464935,0 -4.1791096,0.93562 l -0.9356216,-2.24549 17.2154367,-6.98598 2.6821151,0 0,12.10071 z"
         style="font-style:normal;font-variant:normal;font-weight:normal;font-stretch:normal;font-size:127.74353027px;font-family:'Times New Roman';-inkscape-font-specification:'Times New Roman, '"
         id="path4327" />
      <path
         d="m 75.98321,543.05109 0,18.7748 13.348201,0 0,4.36624 -13.348201,0 0,37.05061 q 0,5.55135 1.55937,7.48497 1.621744,1.93362 4.116735,1.93362 2.058367,0 3.991985,-1.2475 1.933618,-1.30987 2.993989,-3.80486 l 2.432616,0 q -2.183117,6.11273 -6.175102,9.23147 -3.991986,3.05636 -8.23347,3.05636 -2.86924,0 -5.613729,-1.55937 -2.74449,-1.62174 -4.054361,-4.55335 -1.30987,-2.99399 -1.30987,-9.1691 l 0,-38.42285 -9.044341,0 0,-2.05837 q 3.430612,-1.37225 6.985974,-4.61573 3.617737,-3.30587 6.424601,-7.79685 1.43462,-2.37024 3.991986,-8.67009 l 1.933617,0 z"
         style="font-style:normal;font-variant:normal;font-weight:normal;font-stretch:normal;font-size:127.74353027px;font-family:'Times New Roman';-inkscape-font-specification:'Times New Roman, '"
         id="path4329" />
      <path
         d="m 122.76428,560.14177 q 12.97395,0 20.83318,9.85522 6.6741,8.42059 6.6741,19.33618 0,7.67209 -3.68012,15.53131 -3.68011,7.85922 -10.16708,11.85121 -6.4246,3.99199 -14.3462,3.99199 -12.91158,0 -20.5213,-10.29184 -6.424601,-8.6701 -6.424601,-19.46093 0,-7.85922 3.867236,-15.59369 3.929615,-7.79685 10.291835,-11.47696 6.36223,-3.74249 13.47295,-3.74249 z m -1.93362,4.05436 q -3.30586,0 -6.6741,1.996 -3.30586,1.93361 -5.36423,6.86122 -2.05836,4.92761 -2.05836,12.66208 0,12.47495 4.9276,21.51929 4.98998,9.04435 13.0987,9.04435 6.05036,0 9.97997,-4.98999 3.92961,-4.98998 3.92961,-17.15306 0,-15.21944 -6.54935,-23.95191 -4.42861,-5.98798 -11.28984,-5.98798 z"
         style="font-style:normal;font-variant:normal;font-weight:normal;font-stretch:normal;font-size:127.74353027px;font-family:'Times New Roman';-inkscape-font-specification:'Times New Roman, '"
         id="path4331" />
      <path
         d="m 175.40859,560.14177 0,12.84921 q 7.1731,-12.84921 14.72044,-12.84921 3.43062,0 5.67611,2.12075 2.24549,2.05836 2.24549,4.80285 0,2.43262 -1.62174,4.11674 -1.62175,1.68412 -3.86724,1.68412 -2.18312,0 -4.92761,-2.12075 -2.68211,-2.18311 -3.99198,-2.18311 -1.12275,0 -2.43262,1.24749 -2.80686,2.55737 -5.80085,8.4206 l 0,27.38252 q 0,4.74048 1.18512,7.1731 0.81087,1.68412 2.86924,2.80686 2.05837,1.12275 5.9256,1.12275 l 0,2.24549 -29.25377,0 0,-2.24549 q 4.36624,0 6.48698,-1.37225 1.55937,-0.99799 2.18312,-3.18111 0.31187,-1.06037 0.31187,-6.05035 l 0,-22.14304 q 0,-9.97997 -0.43662,-11.85121 -0.37425,-1.93362 -1.497,-2.80687 -1.06037,-0.87324 -2.68211,-0.87324 -1.93362,0 -4.36624,0.93562 l -0.62374,-2.24549 17.27781,-6.98598 2.61974,0 z"
         style="font-style:normal;font-variant:normal;font-weight:normal;font-stretch:normal;font-size:127.74353027px;font-family:'Times New Roman';-inkscape-font-specification:'Times New Roman, '"
         id="path4333" />
      <path
         d="m 198.11303,561.82589 26.63403,0 0,2.30787 -1.30987,0 q -2.80687,0 -4.24149,1.24749 -1.37224,1.18512 -1.37224,2.99399 0,2.43262 2.05836,6.73648 l 13.90958,28.81714 12.78683,-31.56163 q 1.06037,-2.55737 1.06037,-5.05236 0,-1.12274 -0.43663,-1.68412 -0.49899,-0.68612 -1.55937,-1.06037 -1.06037,-0.43662 -3.74248,-0.43662 l 0,-2.30787 18.58768,0 0,2.30787 q -2.30787,0.2495 -3.55536,0.99799 -1.2475,0.7485 -2.74449,2.80687 -0.56137,0.87325 -2.12074,4.80286 l -23.26579,57.01054 q -3.36824,8.29584 -8.85722,12.53733 -5.42661,4.24148 -10.47896,4.24148 -3.68011,0 -6.05035,-2.12074 -2.37025,-2.12074 -2.37025,-4.86523 0,-2.61974 1.68412,-4.24149 1.7465,-1.55937 4.74049,-1.55937 2.05836,0 5.61372,1.37225 2.495,0.93562 3.11874,0.93562 1.87125,0 4.05436,-1.93362 2.2455,-1.93362 4.49099,-7.48497 l 4.05436,-9.91759 -20.5213,-43.10097 q -0.93562,-1.93361 -2.99399,-4.80285 -1.55937,-2.18312 -2.55737,-2.93162 -1.43462,-0.99799 -4.61573,-1.74649 l 0,-2.30787 z"
         style="font-style:normal;font-variant:normal;font-weight:normal;font-stretch:normal;font-size:127.74353027px;font-family:'Times New Roman';-inkscape-font-specification:'Times New Roman, '"
         id="path4335" />
    </g>
    <g
       transform="scale(0.92756763,1.0780885)"
       style="font-style:normal;font-variant:normal;font-weight:normal;font-stretch:normal;font-size:110.32829285px;line-height:150%;font-family:'Special Elite';-inkscape-font-specification:'Special Elite, Normal';text-align:start;letter-spacing:0px;word-spacing:0px;writing-mode:lr-tb;text-anchor:start;fill:#000000;fill-opacity:1;stroke:none;stroke-width:1px;stroke-linecap:butt;stroke-linejoin:miter;stroke-opacity:1"
       id="text4181-06">
      <path
         d="m -371.11959,793.52415 0,1.99324 q -2.85517,0 -4.63292,1.02355 -1.77775,1.02355 -3.39389,3.82486 -1.07743,1.88549 -3.39389,8.99649 l -20.36333,58.88127 -2.15485,0 -16.64621,-46.70637 -16.53847,46.70637 -1.93936,0 -21.71011,-60.65902 q -2.42421,-6.78777 -3.07066,-8.02681 -1.07743,-2.04711 -2.96292,-3.01679 -1.83162,-1.02355 -5.01002,-1.02355 l 0,-1.99324 27.04336,0 0,1.99324 -1.29291,0 q -2.85518,0 -4.36357,1.29291 -1.5084,1.29291 -1.5084,3.12453 0,1.88549 2.37034,8.67327 l 14.38362,40.99601 12.12103,-34.85469 -2.15485,-6.14132 -1.72388,-4.90229 q -1.1313,-2.69356 -2.53195,-4.74066 -0.70033,-1.02356 -1.72388,-1.72388 -1.34678,-0.96969 -2.69356,-1.40066 -1.02356,-0.32322 -3.23228,-0.32322 l 0,-1.99324 28.44402,0 0,1.99324 -1.93937,0 q -3.01679,0 -4.41744,1.29291 -1.40065,1.29291 -1.40065,3.50163 0,2.74743 2.4242,9.58908 l 14.00652,39.7031 13.89878,-40.24182 q 2.37034,-6.68003 2.37034,-9.26585 0,-1.23904 -0.80807,-2.31646 -0.7542,-1.07743 -1.93936,-1.5084 -2.04711,-0.75419 -5.33326,-0.75419 l 0,-1.99324 21.81785,0 z"
         style="font-style:normal;font-variant:normal;font-weight:normal;font-stretch:normal;font-size:110.32829285px;font-family:'Times New Roman';-inkscape-font-specification:'Times New Roman, '"
         id="path4309" />
      <path
         d="m -336.48038,864.58031 0,1.99324 -31.29919,0 0,-1.99324 2.58582,0 q 4.52519,0 6.57229,-2.63969 1.29291,-1.72388 1.29291,-8.29617 l 0,-47.1912 q 0,-5.54874 -0.70032,-7.32649 -0.53872,-1.34678 -2.20872,-2.31646 -2.37034,-1.29291 -4.95616,-1.29291 l -2.58582,0 0,-1.99324 31.29919,0 0,1.99324 -2.63969,0 q -4.47131,0 -6.51842,2.63969 -1.34678,1.72388 -1.34678,8.29617 l 0,47.1912 q 0,5.54874 0.70033,7.32649 0.53871,1.34678 2.26259,2.31646 2.31646,1.29291 4.90228,1.29291 l 2.63969,0 z"
         style="font-style:normal;font-variant:normal;font-weight:normal;font-stretch:normal;font-size:110.32829285px;font-family:'Times New Roman';-inkscape-font-specification:'Times New Roman, '"
         id="path4311" />
      <path
         d="m -335.1336,793.52415 19.82461,0 44.65926,54.78705 0,-42.12731 q 0,-6.7339 -1.50839,-8.40391 -1.99324,-2.26259 -6.30294,-2.26259 l -2.53195,0 0,-1.99324 25.42723,0 0,1.99324 -2.58582,0 q -4.63293,0 -6.57229,2.8013 -1.18517,1.72388 -1.18517,7.8652 l 0,61.57482 -1.93937,0 -48.16088,-58.82739 0,44.98249 q 0,6.7339 1.45452,8.40391 2.04711,2.26259 6.30294,2.26259 l 2.58582,0 0,1.99324 -25.42723,0 0,-1.99324 2.53195,0 q 4.6868,0 6.62616,-2.8013 1.18517,-1.72388 1.18517,-7.8652 l 0,-50.80058 q -3.1784,-3.71711 -4.84841,-4.90228 -1.61614,-1.18517 -4.79454,-2.20872 -1.56227,-0.48484 -4.74067,-0.48484 l 0,-1.99324 z"
         style="font-style:normal;font-variant:normal;font-weight:normal;font-stretch:normal;font-size:110.32829285px;font-family:'Times New Roman';-inkscape-font-specification:'Times New Roman, '"
         id="path4313" />
    </g>
    <g
       transform="scale(0.94818304,1.0546487)"
       style="font-style:normal;font-variant:normal;font-weight:normal;font-stretch:normal;font-size:96.51013184px;line-height:150%;font-family:'Special Elite';-inkscape-font-specification:'Special Elite, Normal';text-align:start;letter-spacing:0px;word-spacing:0px;writing-mode:lr-tb;text-anchor:start;fill:#000000;fill-opacity:1;stroke:none;stroke-width:1px;stroke-linecap:butt;stroke-linejoin:miter;stroke-opacity:1"
       id="text4181-9">
      <path
         d="m 298.17315,864.50797 1.5551,0.32987 -5.4664,17.34166 -49.48029,0 0,-1.74359 2.40333,0 q 4.05267,0 5.79626,-2.63895 0.98961,-1.50797 0.98961,-6.97436 l 0,-41.23358 q 0,-5.98476 -1.31948,-7.49273 -1.83784,-2.07346 -5.46639,-2.07346 l -2.40333,0 0,-1.74359 28.93419,0 0,1.74359 q -5.0894,-0.0471 -7.16286,0.94248 -2.02634,0.98961 -2.78032,2.49758 -0.75399,1.50797 -0.75399,7.20999 l 0,40.14972 q 0,3.9113 0.75399,5.37215 0.56549,0.9896 1.74359,1.46084 1.1781,0.47124 7.35136,0.47124 l 4.66528,0 q 7.35136,0 10.32018,-1.08385 2.96881,-1.08386 5.41927,-3.81705 2.45045,-2.78032 4.9009,-8.71796 z"
         style="font-style:normal;font-variant:normal;font-weight:normal;font-stretch:normal;font-size:96.51013184px;font-family:'Times New Roman';-inkscape-font-specification:'Times New Roman, '"
         id="path4297" />
      <path
         d="m 337.14477,816.81839 q 12.44076,0 21.53571,9.47195 9.14207,9.42481 9.14207,23.56204 0,14.56134 -9.18919,24.17466 -9.1892,9.61331 -22.24257,9.61331 -13.19475,0 -22.19545,-9.37769 -8.95357,-9.3777 -8.95357,-24.26891 0,-15.22108 10.36729,-24.83439 9.00071,-8.34097 21.53571,-8.34097 z m -0.89535,3.44006 q -8.57659,0 -13.76024,6.36175 -6.456,7.91685 -6.456,23.18506 0,15.64519 6.69162,24.0804 5.13653,6.40888 13.57174,6.40888 9.0007,0 14.84409,-7.02149 5.89051,-7.02149 5.89051,-22.14832 0,-16.39918 -6.456,-24.4574 -5.18365,-6.40888 -14.32572,-6.40888 z"
         style="font-style:normal;font-variant:normal;font-weight:normal;font-stretch:normal;font-size:96.51013184px;font-family:'Times New Roman';-inkscape-font-specification:'Times New Roman, '"
         id="path4299" />
      <path
         d="m 415.842,816.81839 0,22.1012 -1.74359,0 q -0.84823,-6.36175 -3.06306,-10.13168 -2.16771,-3.76992 -6.22038,-5.98476 -4.05268,-2.21483 -8.38809,-2.21483 -4.90091,0 -8.10535,3.01594 -3.20443,2.96882 -3.20443,6.78587 0,2.9217 2.02633,5.32502 2.9217,3.53431 13.90161,9.42482 8.95358,4.80666 12.20514,7.39848 3.29868,2.5447 5.04227,6.03189 1.79072,3.48718 1.79072,7.30423 0,7.25711 -5.65489,12.53501 -5.60777,5.23077 -14.4671,5.23077 -2.78032,0 -5.23077,-0.42412 -1.46085,-0.23562 -6.07901,-1.69646 -4.57103,-1.50797 -5.79626,-1.50797 -1.1781,0 -1.88496,0.70686 -0.65974,0.70686 -0.98961,2.92169 l -1.74359,0 0,-21.9127 1.74359,0 q 1.22523,6.88012 3.29869,10.32018 2.07346,3.39293 6.31463,5.65489 4.28829,2.26195 9.37769,2.26195 5.89051,0 9.28344,-3.11019 3.44006,-3.11019 3.44006,-7.35136 0,-2.3562 -1.31947,-4.75953 -1.27235,-2.40333 -4.00555,-4.47679 -1.83784,-1.41372 -10.03743,-5.98476 -8.19959,-4.61816 -11.68677,-7.35135 -3.44006,-2.7332 -5.23078,-6.03189 -1.79071,-3.29868 -1.79071,-7.25711 0,-6.88011 5.27789,-11.82814 5.2779,-4.99516 13.43037,-4.99516 5.0894,0 10.79142,2.49758 2.63894,1.1781 3.7228,1.1781 1.22522,0 1.97921,-0.70686 0.80111,-0.75398 1.27235,-2.96882 l 1.74359,0 z"
         style="font-style:normal;font-variant:normal;font-weight:normal;font-stretch:normal;font-size:96.51013184px;font-family:'Times New Roman';-inkscape-font-specification:'Times New Roman, '"
         id="path4301" />
      <path
         d="m 445.48306,821.76642 0,25.25851 14.04298,0 q 5.46639,0 7.30423,-1.64934 2.45045,-2.16771 2.7332,-7.6341 l 1.74359,0 0,22.24257 -1.74359,0 q -0.65974,-4.66529 -1.31948,-5.98476 -0.84823,-1.64934 -2.78032,-2.59182 -1.93209,-0.94249 -5.93763,-0.94249 l -14.04298,0 0,21.06447 q 0,4.24117 0.37699,5.18365 0.37699,0.89536 1.31948,1.46085 0.94248,0.51836 3.58143,0.51836 l 10.83854,0 q 5.41927,0 7.86972,-0.75398 2.45045,-0.75399 4.71241,-2.96882 2.92169,-2.92169 5.98476,-8.81221 l 1.88496,0 -5.51352,16.02219 -49.24467,0 0,-1.74359 2.26196,0 q 2.26195,0 4.28829,-1.08385 1.50797,-0.75399 2.02634,-2.26196 0.56548,-1.50797 0.56548,-6.17325 l 0,-41.51632 q 0,-6.07901 -1.22522,-7.49273 -1.69647,-1.88497 -5.65489,-1.88497 l -2.26196,0 0,-1.74359 49.24467,0 0.70686,13.99586 -1.83784,0 q -0.9896,-5.04228 -2.21483,-6.92725 -1.1781,-1.88496 -3.5343,-2.87456 -1.88497,-0.70687 -6.6445,-0.70687 l -17.53016,0 z"
         style="font-style:normal;font-variant:normal;font-weight:normal;font-stretch:normal;font-size:96.51013184px;font-family:'Times New Roman';-inkscape-font-specification:'Times New Roman, '"
         id="path4303" />
    </g>
    <g
       transform="scale(0.94247154,1.06104)"
       style="font-style:normal;font-variant:normal;font-weight:normal;font-stretch:normal;font-size:140.72337341px;line-height:150%;font-family:'Special Elite';-inkscape-font-specification:'Special Elite, Normal';text-align:start;letter-spacing:0px;word-spacing:0px;writing-mode:lr-tb;text-anchor:start;fill:#000000;fill-opacity:1;stroke:none;stroke-width:1px;stroke-linecap:butt;stroke-linejoin:miter;stroke-opacity:1"
       id="text4181-3">
      <path
         d="m -19.196201,798.61343 22.6751527,-11.06272 2.2675153,0 0,78.67591 q 0,7.83323 0.6184133,9.75719 0.6871258,1.92395 2.7485034,2.95464 2.0613773,1.03068 8.3829353,1.16811 l 0,2.54237 -35.043418,0 0,-2.54237 q 6.596408,-0.13743 8.5203603,-1.0994 1.9239524,-1.03069 2.6797908,-2.67979 0.7558385,-1.71782 0.7558385,-10.10075 l 0,-50.29761 q 0,-10.16947 -0.6871259,-13.0554 -0.4809881,-2.1988 -1.7865272,-3.22949 -1.2368265,-1.03069 -3.0233535,-1.03069 -2.542366,0 -7.077396,2.13009 l -1.030689,-2.13009 z"
         style="font-style:normal;font-variant:normal;font-weight:normal;font-stretch:normal;font-size:140.72337341px;font-family:'Times New Roman';-inkscape-font-specification:'Times New Roman, '"
         id="path4306" />
    </g>
    <rect
       transform="translate(-579.35718,-79.280655)"
       style="display:inline;fill:none;fill-opacity:1;stroke:#000000;stroke-width:8;stroke-linecap:butt;stroke-linejoin:miter;stroke-miterlimit:10.69999981;stroke-dasharray:none;stroke-opacity:1"
       id="rect4251"
       width="362.94855"
       height="168.65428"
       x="69.360115"
       y="882.82941" />
    <rect
       transform="translate(-579.35718,-79.280655)"
       style="display:inline;fill:none;fill-opacity:1;stroke:#000000;stroke-width:8;stroke-linecap:butt;stroke-linejoin:miter;stroke-miterlimit:10.69999981;stroke-dasharray:none;stroke-opacity:1"
       id="rect4253"
       width="362.94855"
       height="170.02547"
       x="746.53918"
       y="882.82941" />
    <rect
       transform="translate(-579.35718,-79.280655)"
       style="display:inline;fill:none;fill-opacity:1;stroke:#000000;stroke-width:8;stroke-linecap:butt;stroke-linejoin:miter;stroke-miterlimit:10.69999981;stroke-dasharray:none;stroke-opacity:1"
       id="rect4255"
       width="170.51274"
       height="168.65428"
       x="491.9881"
       y="881.45825" />
    <path
       style="fill:none;fill-rule:evenodd;stroke:#000000;stroke-width:10;stroke-linecap:butt;stroke-linejoin:miter;stroke-miterlimit:4;stroke-dasharray:none;stroke-opacity:1"
       d="m 479.75326,621.06904 30.30458,28.28427 -30.30455,32.32488"
       id="path4342"
       inkscape:connector-curvature="0"
       sodipodi:nodetypes="ccc" />
    <path
       style="fill:none;fill-rule:evenodd;stroke:#000000;stroke-width:10;stroke-linecap:butt;stroke-linejoin:miter;stroke-miterlimit:4;stroke-dasharray:none;stroke-opacity:1"
       d="m -463.23764,680.77564 -30.63632,-27.92461 29.92091,-32.68032"
       id="path4342-9"
       inkscape:connector-curvature="0"
       sodipodi:nodetypes="ccc" />
  </g>
</svg>
